<?xml version="1.0" standalone="no"?>
<!DOCTYPE svg PUBLIC "-//W3C//DTD SVG 20010904//EN"
 "http://www.w3.org/TR/2001/REC-SVG-20010904/DTD/svg10.dtd">
<svg version="1.0" xmlns="http://www.w3.org/2000/svg"
 width="460.000000pt" height="460.000000pt" viewBox="0 0 460.000000 460.000000"
 preserveAspectRatio="xMidYMid meet">
<metadata>
Created by potrace 1.11, written by Peter Selinger 2001-2013
</metadata>
<g transform="translate(0.000000,460.000000) scale(0.100000,-0.100000)"
fill="#000000" stroke="none">
<path d="M2098 4455 c-2 -2 -34 -6 -73 -10 -38 -4 -77 -9 -85 -10 -8 -2 -50
-11 -93 -20 -392 -82 -756 -277 -1034 -553 -192 -190 -287 -321 -408 -557
-107 -209 -186 -471 -212 -700 -14 -131 -8 -472 11 -561 2 -12 7 -38 10 -59
34 -211 151 -514 278 -718 163 -264 414 -518 668 -676 67 -42 244 -133 315
-163 102 -42 273 -95 369 -114 169 -33 239 -39 436 -38 183 0 267 7 380 29 14
3 34 7 45 9 70 14 204 53 295 86 683 252 1185 840 1330 1559 29 145 31 170 35
376 3 209 -8 318 -51 505 -66 287 -193 556 -373 795 -184 243 -451 465 -727
603 -137 68 -355 147 -460 166 -13 3 -32 7 -42 10 -23 7 -68 15 -118 22 -23 2
-53 7 -65 10 -26 6 -425 14 -431 9z"/>
</g>
</svg>
